<svg id="Layer_1" data-name="Layer 1" xmlns="http://www.w3.org/2000/svg" viewBox="0 0 192 192" fill="#FFFFFF"><defs><style>.cls-1{fill:none;stroke:#FFFFFF;stroke-linecap:round;stroke-linejoin:round;stroke-width:4.80px;}</style></defs><rect class="cls-1" x="40.44" y="57.4" width="111.41" height="111.41" rx="15"></rect><line class="cls-1" x1="96.63" y1="55.66" x2="96.63" y2="43.22"></line><path d="M106.93,33.5a10.31,10.31,0,1,1-3-7.29A10.24,10.24,0,0,1,106.93,33.5Z" fill="#FFFFFF"></path><path d="M39.44,89.72H26.15a6,6,0,0,0-6,6V130.5a6,6,0,0,0,6,6H39.44" fill="#FFFFFF"></path><path d="M152.48,136.5h13.37a6,6,0,0,0,6-6V95.72a6,6,0,0,0-6-6H152.48" fill="#FFFFFF"></path><line class="cls-1" x1="63.99" y1="100.71" x2="81.99" y2="82.68"></line><line class="cls-1" x1="81.99" y1="100.71" x2="63.99" y2="82.68"></line><line class="cls-1" x1="110.3" y1="100.71" x2="128.3" y2="82.68"></line><line class="cls-1" x1="128.3" y1="100.71" x2="110.3" y2="82.68"></line><line class="cls-1" x1="72.02" y1="143.48" x2="117.13" y2="143.48"></line><path class="cls-1" d="M72,143.54a22.64,22.64,0,1,1,45.27,0"></path></svg>